<svg xmlns="http://www.w3.org/2000/svg" xmlns:xlink="http://www.w3.org/1999/xlink" width="1080" zoomAndPan="magnify" viewBox="0 0 810 1439.999935" height="1920" preserveAspectRatio="xMidYMid meet" version="1.0"><defs><clipPath id="71325d65c8"><path d="M 0 215 L 92 215 L 92 272.25 L 0 272.25 Z M 0 215 " clip-rule="nonzero"/></clipPath></defs><path fill="#718fc8" d="M 171.523438 88.949219 C 171.523438 88.949219 166.433594 80.957031 152.871094 79.46875 C 139.308594 77.976562 133.882812 72.761719 126.894531 68.496094 C 119.90625 64.226562 102.523438 62.875 103.292969 62.734375 C 104.0625 62.59375 107.429688 61.042969 112.113281 56.367188 C 116.789062 51.699219 124.316406 54.40625 124.316406 54.40625 C 124.316406 54.40625 115.707031 44.179688 115.164062 40.25 C 114.621094 36.320312 115.164062 39.027344 114.621094 36.183594 C 114.078125 33.339844 105.261719 22.097656 105.261719 0.015625 C 105.261719 0.015625 134.691406 26.5625 137.546875 53.796875 C 152.054688 53.253906 167.25 46.480469 186.105469 36.59375 C 175.386719 55.554688 165.082031 62.328125 149.070312 68.699219 C 160.738281 76.015625 171.523438 88.949219 171.523438 88.949219 Z M 171.523438 88.949219 " fill-opacity="1" fill-rule="evenodd"/><g clip-path="url(#71325d65c8)"><path fill="#718fc8" d="M 91.828125 217.613281 L 63.207031 217.75 C 63.207031 217.75 59.476562 214.296875 48.625 215.585938 C 37.773438 216.867188 24.277344 216.191406 19.738281 220.1875 C 15.195312 224.183594 9.695312 225.40625 9.695312 225.40625 C 9.695312 225.40625 17.292969 228.316406 24.277344 227.636719 C 16.886719 238 0 263.875 0 263.875 C 0 263.875 19.871094 264.351562 38.046875 240.511719 C 35.742188 265.972656 34.65625 272.210938 34.65625 272.210938 C 34.65625 272.210938 65.042969 270.851562 59.613281 226.695312 C 62.867188 221.542969 68.773438 221.203125 68.773438 221.203125 L 81.589844 221.816406 C 81.589844 221.816406 87.832031 221 91.828125 217.613281 Z M 91.828125 217.613281 " fill-opacity="1" fill-rule="evenodd"/></g><path fill="#718fc8" d="M 373.863281 86.074219 L 371.117188 78.554688 L 361.011719 73.539062 L 355.792969 66.867188 C 355.792969 66.867188 353.6875 67.070312 363.457031 57.453125 C 373.222656 47.835938 373.222656 47.835938 373.222656 47.835938 L 388.484375 27.378906 C 388.484375 27.378906 378.242188 35.101562 363.457031 44.652344 C 364.402344 24.601562 363.050781 11.9375 356.539062 6.515625 C 346.367188 31.238281 345.417969 34.691406 342.636719 45.125 C 339.851562 55.554688 339.109375 57.316406 339.109375 57.316406 C 339.109375 57.316406 335.71875 54.675781 330.019531 59.210938 C 324.324219 63.75 321.542969 63.414062 321.542969 63.414062 C 321.542969 63.414062 326.695312 64.496094 331.175781 64.160156 C 335.652344 63.820312 340.054688 64.160156 340.054688 64.160156 C 340.054688 64.160156 347.246094 77.839844 355.453125 75.808594 C 363.730469 79.871094 373.863281 86.074219 373.863281 86.074219 Z M 373.863281 86.074219 " fill-opacity="1" fill-rule="evenodd"/><path fill="#718fc8" d="M 279.832031 193.527344 C 279.832031 193.527344 256.367188 188.449219 248.226562 179.644531 C 260.574219 158.644531 268.847656 152.6875 263.964844 117.464844 C 246.601562 151.058594 241.042969 160.003906 241.042969 160.003906 C 241.042969 160.003906 225.304688 147.945312 211.605469 141.035156 C 217.300781 170.703125 224.355469 177.613281 225.304688 177.613281 C 226.257812 177.613281 217.640625 174.703125 211.0625 180.390625 C 204.484375 186.082031 202.109375 185.402344 202.109375 185.402344 C 202.109375 185.402344 210.519531 186.484375 215.472656 185.675781 C 225.472656 184.03125 229.578125 196.980469 256.867188 195.488281 C 264.359375 195.082031 272.402344 197.203125 277.933594 200.707031 L 284.578125 194.476562 Z M 279.832031 193.527344 " fill-opacity="1" fill-rule="evenodd"/><path fill="#718fc8" d="M 462 236.273438 C 462 236.273438 450.0625 224.078125 446.128906 220.558594 C 442.195312 217.035156 433.515625 215.542969 425.917969 208.632812 C 418.324219 201.726562 403.808594 206.46875 403.808594 206.46875 C 403.808594 206.46875 412.558594 196.105469 422.054688 197.191406 C 422.054688 197.191406 420.832031 182.015625 436.429688 177.953125 C 452.027344 173.886719 476.175781 162.234375 476.175781 162.234375 C 476.175781 162.234375 463.828125 178.902344 456.234375 184.183594 L 488.652344 176.867188 C 488.652344 176.867188 464.78125 190.148438 455.691406 198.949219 C 446.605469 207.757812 444.300781 210.328125 444.300781 210.328125 L 469.394531 226.855469 C 469.394531 226.855469 462.878906 229.96875 462 236.273438 Z M 462 236.273438 " fill-opacity="1" fill-rule="evenodd"/><path fill="#718fc8" d="M 643.972656 70.074219 L 626.722656 70.160156 C 626.722656 70.160156 624.46875 68.078125 617.925781 68.855469 C 611.386719 69.632812 603.25 69.21875 600.511719 71.628906 C 597.777344 74.042969 594.464844 74.773438 594.464844 74.773438 C 594.464844 74.773438 599.039062 76.53125 603.25 76.125 C 598.800781 82.371094 588.617188 97.964844 588.617188 97.964844 C 588.617188 97.964844 600.597656 98.253906 611.554688 83.878906 C 610.164062 99.230469 609.511719 102.984375 609.511719 102.984375 C 609.511719 102.984375 627.824219 102.171875 624.550781 75.550781 C 626.515625 72.445312 630.070312 72.242188 630.070312 72.242188 L 637.796875 72.613281 C 637.796875 72.613281 641.558594 72.121094 643.972656 70.074219 Z M 643.972656 70.074219 " fill-opacity="1" fill-rule="evenodd"/><path fill="#718fc8" d="M 688.136719 226.003906 L 686.242188 220.816406 L 679.269531 217.359375 L 675.664062 212.757812 C 675.664062 212.757812 674.21875 212.898438 680.953125 206.261719 C 687.691406 199.621094 687.691406 199.621094 687.691406 199.621094 L 698.222656 185.507812 C 698.222656 185.507812 691.15625 190.835938 680.957031 197.425781 C 681.613281 183.59375 680.675781 174.851562 676.183594 171.117188 C 669.167969 188.175781 668.507812 190.554688 666.589844 197.753906 C 664.671875 204.949219 664.15625 206.164062 664.15625 206.164062 C 664.15625 206.164062 661.816406 204.34375 657.886719 207.476562 C 653.957031 210.605469 652.039062 210.371094 652.039062 210.371094 C 652.039062 210.371094 655.59375 211.117188 658.679688 210.882812 C 661.769531 210.652344 664.8125 210.882812 664.8125 210.882812 C 664.8125 210.882812 669.773438 220.324219 675.4375 218.925781 C 681.140625 221.726562 688.136719 226.003906 688.136719 226.003906 Z M 688.136719 226.003906 " fill-opacity="1" fill-rule="evenodd"/><path fill="#718fc8" d="M 807.414062 150.4375 C 807.414062 150.4375 805.203125 146.960938 799.296875 146.308594 C 793.398438 145.664062 791.039062 143.394531 787.996094 141.535156 C 784.960938 139.683594 777.394531 139.09375 777.730469 139.03125 C 778.066406 138.972656 779.527344 138.296875 781.566406 136.265625 C 783.601562 134.230469 786.878906 135.410156 786.878906 135.410156 C 786.878906 135.410156 783.132812 130.960938 782.894531 129.246094 C 782.65625 127.542969 782.894531 128.71875 782.65625 127.484375 C 782.421875 126.242188 778.585938 121.351562 778.585938 111.746094 C 778.585938 111.746094 791.394531 123.300781 792.632812 135.144531 C 798.949219 134.910156 805.558594 131.960938 813.761719 127.65625 C 809.09375 135.910156 804.613281 138.855469 797.648438 141.625 C 802.71875 144.808594 807.414062 150.4375 807.414062 150.4375 Z M 807.414062 150.4375 " fill-opacity="1" fill-rule="evenodd"/></svg>