<svg xmlns="http://www.w3.org/2000/svg" xmlns:xlink="http://www.w3.org/1999/xlink" width="1920" zoomAndPan="magnify" viewBox="0 0 1440 809.999993" height="1080" preserveAspectRatio="xMidYMid meet" version="1.0"><defs><clipPath id="1905fd7764"><path d="M 1053 0 L 1107 0 L 1107 68 L 1053 68 Z M 1053 0 " clip-rule="nonzero"/></clipPath><clipPath id="90f4b87b88"><path d="M 1013.128906 -28.410156 L 1466.269531 192.226562 L 1392.394531 343.949219 L 939.253906 123.308594 Z M 1013.128906 -28.410156 " clip-rule="nonzero"/></clipPath><clipPath id="9b8a97d4ac"><path d="M 1013.128906 -28.410156 L 1466.269531 192.226562 L 1392.394531 343.949219 L 939.253906 123.308594 Z M 1013.128906 -28.410156 " clip-rule="nonzero"/></clipPath><clipPath id="6868250eca"><path d="M 1013.128906 -28.410156 L 1466.269531 192.226562 L 1392.394531 343.949219 L 939.253906 123.308594 Z M 1013.128906 -28.410156 " clip-rule="nonzero"/></clipPath><clipPath id="1845fcfb34"><path d="M 941 99 L 1006 99 L 1006 134 L 941 134 Z M 941 99 " clip-rule="nonzero"/></clipPath><clipPath id="f72adba9cf"><path d="M 1013.128906 -28.410156 L 1466.269531 192.226562 L 1392.394531 343.949219 L 939.253906 123.308594 Z M 1013.128906 -28.410156 " clip-rule="nonzero"/></clipPath><clipPath id="5287643e6b"><path d="M 1013.128906 -28.410156 L 1466.269531 192.226562 L 1392.394531 343.949219 L 939.253906 123.308594 Z M 1013.128906 -28.410156 " clip-rule="nonzero"/></clipPath><clipPath id="4073ca554f"><path d="M 1013.128906 -28.410156 L 1466.269531 192.226562 L 1392.394531 343.949219 L 939.253906 123.308594 Z M 1013.128906 -28.410156 " clip-rule="nonzero"/></clipPath><clipPath id="3c3f4adce0"><path d="M 1174 71 L 1223 71 L 1223 121 L 1174 121 Z M 1174 71 " clip-rule="nonzero"/></clipPath><clipPath id="5051904d1b"><path d="M 1013.128906 -28.410156 L 1466.269531 192.226562 L 1392.394531 343.949219 L 939.253906 123.308594 Z M 1013.128906 -28.410156 " clip-rule="nonzero"/></clipPath><clipPath id="74a179ff51"><path d="M 1013.128906 -28.410156 L 1466.269531 192.226562 L 1392.394531 343.949219 L 939.253906 123.308594 Z M 1013.128906 -28.410156 " clip-rule="nonzero"/></clipPath><clipPath id="91aedbb804"><path d="M 1013.128906 -28.410156 L 1466.269531 192.226562 L 1392.394531 343.949219 L 939.253906 123.308594 Z M 1013.128906 -28.410156 " clip-rule="nonzero"/></clipPath><clipPath id="9c464b7d78"><path d="M 1075 107 L 1129 107 L 1129 159 L 1075 159 Z M 1075 107 " clip-rule="nonzero"/></clipPath><clipPath id="ffcc4f7ab6"><path d="M 1013.128906 -28.410156 L 1466.269531 192.226562 L 1392.394531 343.949219 L 939.253906 123.308594 Z M 1013.128906 -28.410156 " clip-rule="nonzero"/></clipPath><clipPath id="12e883bd45"><path d="M 1013.128906 -28.410156 L 1466.269531 192.226562 L 1392.394531 343.949219 L 939.253906 123.308594 Z M 1013.128906 -28.410156 " clip-rule="nonzero"/></clipPath><clipPath id="98453b46f4"><path d="M 1013.128906 -28.410156 L 1466.269531 192.226562 L 1392.394531 343.949219 L 939.253906 123.308594 Z M 1013.128906 -28.410156 " clip-rule="nonzero"/></clipPath><clipPath id="c1df14e971"><path d="M 1181 188 L 1238 188 L 1238 229 L 1181 229 Z M 1181 188 " clip-rule="nonzero"/></clipPath><clipPath id="325cd403be"><path d="M 1013.128906 -28.410156 L 1466.269531 192.226562 L 1392.394531 343.949219 L 939.253906 123.308594 Z M 1013.128906 -28.410156 " clip-rule="nonzero"/></clipPath><clipPath id="488215b9ac"><path d="M 1013.128906 -28.410156 L 1466.269531 192.226562 L 1392.394531 343.949219 L 939.253906 123.308594 Z M 1013.128906 -28.410156 " clip-rule="nonzero"/></clipPath><clipPath id="d18a7ca522"><path d="M 1013.128906 -28.410156 L 1466.269531 192.226562 L 1392.394531 343.949219 L 939.253906 123.308594 Z M 1013.128906 -28.410156 " clip-rule="nonzero"/></clipPath><clipPath id="594299fdc6"><path d="M 1314 174 L 1353 174 L 1353 195 L 1314 195 Z M 1314 174 " clip-rule="nonzero"/></clipPath><clipPath id="946b5495cf"><path d="M 1013.128906 -28.410156 L 1466.269531 192.226562 L 1392.394531 343.949219 L 939.253906 123.308594 Z M 1013.128906 -28.410156 " clip-rule="nonzero"/></clipPath><clipPath id="dc03215bfc"><path d="M 1013.128906 -28.410156 L 1466.269531 192.226562 L 1392.394531 343.949219 L 939.253906 123.308594 Z M 1013.128906 -28.410156 " clip-rule="nonzero"/></clipPath><clipPath id="961fd22a1d"><path d="M 1013.128906 -28.410156 L 1466.269531 192.226562 L 1392.394531 343.949219 L 939.253906 123.308594 Z M 1013.128906 -28.410156 " clip-rule="nonzero"/></clipPath><clipPath id="3ccc57cff0"><path d="M 1319 250 L 1352 250 L 1352 285 L 1319 285 Z M 1319 250 " clip-rule="nonzero"/></clipPath><clipPath id="66054ddaf2"><path d="M 1013.128906 -28.410156 L 1466.269531 192.226562 L 1392.394531 343.949219 L 939.253906 123.308594 Z M 1013.128906 -28.410156 " clip-rule="nonzero"/></clipPath><clipPath id="5ddb260be6"><path d="M 1013.128906 -28.410156 L 1466.269531 192.226562 L 1392.394531 343.949219 L 939.253906 123.308594 Z M 1013.128906 -28.410156 " clip-rule="nonzero"/></clipPath><clipPath id="ae9f0cdd52"><path d="M 1013.128906 -28.410156 L 1466.269531 192.226562 L 1392.394531 343.949219 L 939.253906 123.308594 Z M 1013.128906 -28.410156 " clip-rule="nonzero"/></clipPath><clipPath id="48e8dcd449"><path d="M 1408 244 L 1432 244 L 1432 275 L 1408 275 Z M 1408 244 " clip-rule="nonzero"/></clipPath><clipPath id="c53d2a1ba9"><path d="M 1013.128906 -28.410156 L 1466.269531 192.226562 L 1392.394531 343.949219 L 939.253906 123.308594 Z M 1013.128906 -28.410156 " clip-rule="nonzero"/></clipPath><clipPath id="0e4715aec4"><path d="M 1013.128906 -28.410156 L 1466.269531 192.226562 L 1392.394531 343.949219 L 939.253906 123.308594 Z M 1013.128906 -28.410156 " clip-rule="nonzero"/></clipPath><clipPath id="4b5744de4f"><path d="M 1013.128906 -28.410156 L 1466.269531 192.226562 L 1392.394531 343.949219 L 939.253906 123.308594 Z M 1013.128906 -28.410156 " clip-rule="nonzero"/></clipPath></defs><g clip-path="url(#1905fd7764)"><g clip-path="url(#90f4b87b88)"><g clip-path="url(#9b8a97d4ac)"><g clip-path="url(#6868250eca)"><path fill="#718fc8" d="M 1084.507812 67.664062 C 1084.507812 67.664062 1083.84375 61.828125 1076.695312 57.324219 C 1069.546875 52.8125 1067.941406 48.4375 1065.207031 44.164062 C 1062.472656 39.890625 1053.160156 34.425781 1053.628906 34.554688 C 1054.09375 34.683594 1056.390625 34.734375 1060.265625 33.398438 C 1064.136719 32.0625 1067.59375 35.613281 1067.59375 35.613281 C 1067.59375 35.613281 1065.574219 27.578125 1066.339844 25.242188 C 1067.101562 22.90625 1066.667969 24.5625 1067.140625 22.828125 C 1067.609375 21.097656 1065.75 12.441406 1071.742188 0.132812 C 1071.742188 0.132812 1080.929688 22.910156 1075.125 38.859375 C 1083.351562 42.492188 1093.652344 42.835938 1106.835938 42.4375 C 1095.722656 50.101562 1088.144531 51.082031 1077.5 50.289062 C 1082.011719 57.53125 1084.507812 67.664062 1084.507812 67.664062 Z M 1084.507812 67.664062 " fill-opacity="1" fill-rule="evenodd"/></g></g></g></g><g clip-path="url(#1845fcfb34)"><g clip-path="url(#f72adba9cf)"><g clip-path="url(#5287643e6b)"><g clip-path="url(#4073ca554f)"><path fill="#718fc8" d="M 1005.214844 117.761719 L 989.242188 110.078125 C 989.242188 110.078125 988.101562 107.140625 981.710938 104.914062 C 975.316406 102.6875 967.988281 98.652344 964.375 99.648438 C 960.757812 100.644531 957.367188 99.832031 957.367188 99.832031 C 957.367188 99.832031 960.804688 103.515625 964.878906 105.03125 C 957.953125 108.800781 941.527344 118.644531 941.527344 118.644531 C 941.527344 118.644531 952.460938 124.296875 969.054688 115.9375 C 960.859375 129.503906 958.5625 132.683594 958.5625 132.683594 C 958.5625 132.683594 975.851562 140.167969 984.8125 114.085938 C 988.023438 112.097656 991.402344 113.511719 991.402344 113.511719 L 998.375 117.324219 C 998.375 117.324219 1002.070312 118.5625 1005.214844 117.761719 Z M 1005.214844 117.761719 " fill-opacity="1" fill-rule="evenodd"/></g></g></g></g><g clip-path="url(#3c3f4adce0)"><g clip-path="url(#5051904d1b)"><g clip-path="url(#74a179ff51)"><g clip-path="url(#91aedbb804)"><path fill="#718fc8" d="M 1197.960938 120.925781 L 1198.472656 115.988281 L 1194.207031 110.453125 L 1193.109375 105.320312 C 1193.109375 105.320312 1191.882812 104.863281 1199.933594 102.152344 C 1207.980469 99.441406 1207.980469 99.441406 1207.980469 99.441406 L 1222.03125 92.175781 C 1222.03125 92.175781 1214.234375 93.703125 1203.40625 95.019531 C 1209.375 84.101562 1212.058594 76.675781 1209.902344 71.890625 C 1197.53125 82.910156 1196.0625 84.578125 1191.683594 89.636719 C 1187.304688 94.695312 1186.414062 95.476562 1186.414062 95.476562 C 1186.414062 95.476562 1185.242188 93.085938 1180.835938 94.066406 C 1176.433594 95.050781 1174.976562 94.109375 1174.976562 94.109375 C 1174.976562 94.109375 1177.550781 96.109375 1180.136719 97.136719 C 1182.722656 98.160156 1185.082031 99.542969 1185.082031 99.542969 C 1185.082031 99.542969 1185.375 109.117188 1190.496094 110.210938 C 1194 114.71875 1197.960938 120.925781 1197.960938 120.925781 Z M 1197.960938 120.925781 " fill-opacity="1" fill-rule="evenodd"/></g></g></g></g><g clip-path="url(#9c464b7d78)"><g clip-path="url(#ffcc4f7ab6)"><g clip-path="url(#12e883bd45)"><g clip-path="url(#98453b46f4)"><path fill="#718fc8" d="M 1116.441406 155.3125 C 1116.441406 155.3125 1104.753906 146.121094 1102.609375 139.003906 C 1115.183594 130.652344 1121.40625 129.574219 1128.246094 108.621094 C 1109.460938 122.632812 1103.9375 126.113281 1103.9375 126.113281 C 1103.9375 126.113281 1098.449219 115.125 1092.695312 107.558594 C 1087.8125 125.636719 1089.867188 131.402344 1090.398438 131.660156 C 1090.925781 131.917969 1086.917969 127.957031 1081.710938 129.34375 C 1076.503906 130.734375 1075.363281 129.710938 1075.363281 129.710938 C 1075.363281 129.710938 1079.757812 132.59375 1082.734375 133.484375 C 1088.75 135.28125 1087.519531 143.613281 1103.121094 150.179688 C 1107.402344 151.984375 1111.308594 155.34375 1113.4375 158.800781 L 1118.828125 157.128906 Z M 1116.441406 155.3125 " fill-opacity="1" fill-rule="evenodd"/></g></g></g></g><g clip-path="url(#c1df14e971)"><g clip-path="url(#325cd403be)"><g clip-path="url(#488215b9ac)"><g clip-path="url(#d18a7ca522)"><path fill="#718fc8" d="M 1206.28125 228.527344 C 1206.28125 228.527344 1202.945312 218.496094 1201.710938 215.464844 C 1200.472656 212.4375 1196.046875 209.25 1193.691406 203.339844 C 1191.335938 197.429688 1181.964844 196.140625 1181.964844 196.140625 C 1181.964844 196.140625 1189.652344 192.738281 1194.644531 195.914062 C 1194.644531 195.914062 1198.078125 187.128906 1207.871094 189.09375 C 1217.65625 191.054688 1234.265625 191.109375 1234.265625 191.109375 C 1234.265625 191.109375 1222.871094 197.050781 1217.207031 197.933594 L 1237.246094 202.648438 C 1237.246094 202.648438 1220.347656 203.574219 1212.898438 206.015625 C 1205.445312 208.460938 1203.464844 209.269531 1203.464844 209.269531 L 1212.957031 225.285156 C 1212.957031 225.285156 1208.480469 225.253906 1206.28125 228.527344 Z M 1206.28125 228.527344 " fill-opacity="1" fill-rule="evenodd"/></g></g></g></g><g clip-path="url(#594299fdc6)"><g clip-path="url(#946b5495cf)"><g clip-path="url(#dc03215bfc)"><g clip-path="url(#961fd22a1d)"><path fill="#718fc8" d="M 1352.714844 185.246094 L 1343.082031 180.613281 C 1343.082031 180.613281 1342.394531 178.84375 1338.542969 177.503906 C 1334.6875 176.164062 1330.269531 173.726562 1328.089844 174.328125 C 1325.914062 174.929688 1323.871094 174.4375 1323.871094 174.4375 C 1323.871094 174.4375 1325.941406 176.660156 1328.398438 177.574219 C 1324.222656 179.847656 1314.320312 185.78125 1314.320312 185.78125 C 1314.320312 185.78125 1320.914062 189.1875 1330.914062 184.148438 C 1325.976562 192.324219 1324.59375 194.242188 1324.59375 194.242188 C 1324.59375 194.242188 1335.011719 198.753906 1340.414062 183.03125 C 1342.351562 181.832031 1344.382812 182.683594 1344.382812 182.683594 L 1348.585938 184.984375 C 1348.585938 184.984375 1350.8125 185.730469 1352.714844 185.246094 Z M 1352.714844 185.246094 " fill-opacity="1" fill-rule="evenodd"/></g></g></g></g><g clip-path="url(#3ccc57cff0)"><g clip-path="url(#66054ddaf2)"><g clip-path="url(#5ddb260be6)"><g clip-path="url(#ae9f0cdd52)"><path fill="#718fc8" d="M 1334.992188 284.121094 L 1335.34375 280.714844 L 1332.402344 276.898438 L 1331.644531 273.355469 C 1331.644531 273.355469 1330.800781 273.039062 1336.351562 271.167969 C 1341.90625 269.296875 1341.90625 269.296875 1341.90625 269.296875 L 1351.597656 264.285156 C 1351.597656 264.285156 1346.21875 265.339844 1338.75 266.246094 C 1342.867188 258.714844 1344.71875 253.589844 1343.230469 250.289062 C 1334.695312 257.894531 1333.683594 259.039062 1330.660156 262.535156 C 1327.640625 266.023438 1327.023438 266.5625 1327.023438 266.5625 C 1327.023438 266.5625 1326.214844 264.910156 1323.175781 265.589844 C 1320.140625 266.269531 1319.136719 265.621094 1319.136719 265.621094 C 1319.136719 265.621094 1320.910156 267 1322.695312 267.707031 C 1324.476562 268.414062 1326.109375 269.367188 1326.109375 269.367188 C 1326.109375 269.367188 1326.308594 275.972656 1329.84375 276.730469 C 1332.257812 279.839844 1334.992188 284.121094 1334.992188 284.121094 Z M 1334.992188 284.121094 " fill-opacity="1" fill-rule="evenodd"/></g></g></g></g><g clip-path="url(#48e8dcd449)"><g clip-path="url(#c53d2a1ba9)"><g clip-path="url(#0e4715aec4)"><g clip-path="url(#4b5744de4f)"><path fill="#718fc8" d="M 1421.917969 274.347656 C 1421.917969 274.347656 1421.628906 271.808594 1418.519531 269.847656 C 1415.410156 267.886719 1414.710938 265.980469 1413.523438 264.121094 C 1412.335938 262.265625 1408.28125 259.886719 1408.484375 259.941406 C 1408.6875 260 1409.6875 260.019531 1411.371094 259.441406 C 1413.058594 258.859375 1414.5625 260.402344 1414.5625 260.402344 C 1414.5625 260.402344 1413.683594 256.90625 1414.015625 255.890625 C 1414.347656 254.875 1414.15625 255.59375 1414.363281 254.84375 C 1414.566406 254.085938 1413.757812 250.320312 1416.367188 244.96875 C 1416.367188 244.96875 1420.363281 254.878906 1417.835938 261.816406 C 1421.417969 263.398438 1425.898438 263.546875 1431.636719 263.371094 C 1426.796875 266.707031 1423.503906 267.132812 1418.871094 266.789062 C 1420.832031 269.9375 1421.917969 274.347656 1421.917969 274.347656 Z M 1421.917969 274.347656 " fill-opacity="1" fill-rule="evenodd"/></g></g></g></g></svg>